# xmcd
#
# Track frame offsets:
#	150
#	17835
#	35561
#	52885
#	68111
#	85867
#	104028
#	122978
#	138430
#	156734
#	173815
#
# Disc length: 2574 seconds
#
# Revision: 0
# Processed by: cddbd v1.5.1PL2 Copyright (c) Steve Scherf et al.
# Submitted via: dBpowerAMP V4.0
#
DISCID=9c0a0c0b
DTITLE=Liv Marit Wedvik - Riding Out the Storm
DYEAR=2006
DGENRE=Country
TTITLE0=Mustang Road
TTITLE1=In the Countryside
TTITLE2=Love Me Or Leave Me
TTITLE3=No No No
TTITLE4=24-24
TTITLE5=So the Story Goes
TTITLE6=What About You
TTITLE7=Draggin` a Bar Outta Bed
TTITLE8=365
TTITLE9=Long Way Home
TTITLE10=Riding Out the Storm
EXTD=
EXTT0=
EXTT1=
EXTT2=
EXTT3=
EXTT4=
EXTT5=
EXTT6=
EXTT7=
EXTT8=
EXTT9=
EXTT10=
PLAYORDER=
